<?xml version="1.0" standalone="no"?>
<!DOCTYPE svg PUBLIC "-//W3C//DTD SVG 20010904//EN"
 "http://www.w3.org/TR/2001/REC-SVG-20010904/DTD/svg10.dtd">
<svg version="1.0" xmlns="http://www.w3.org/2000/svg"
 width="1225.000000pt" height="1225.000000pt" viewBox="0 0 1225.000000 1225.000000"
 preserveAspectRatio="xMidYMid meet">
<metadata>
Created by potrace 1.14, written by Peter Selinger 2001-2017
</metadata>
<g transform="translate(0.000000,1225.000000) scale(0.100000,-0.100000)"
fill="#000000" stroke="none">
<path d="M10 11322 c0 -3 16 -69 36 -146 20 -78 37 -149 39 -158 2 -9 13 -50
24 -90 11 -40 50 -190 86 -333 37 -143 85 -330 107 -415 22 -85 44 -171 48
-190 5 -19 25 -98 45 -175 20 -77 56 -219 81 -315 25 -96 61 -236 80 -310 20
-74 37 -142 39 -150 2 -8 13 -53 25 -100 12 -47 23 -92 25 -100 2 -8 15 -58
28 -110 49 -184 99 -375 102 -390 2 -8 24 -96 50 -195 47 -181 52 -201 59
-232 2 -10 27 -106 55 -213 71 -276 122 -472 126 -490 14 -60 37 -150 60 -235
15 -55 28 -107 30 -115 2 -8 23 -94 48 -190 25 -96 73 -281 106 -410 33 -129
76 -298 96 -375 20 -77 38 -147 40 -155 2 -8 29 -114 60 -235 31 -121 58 -226
60 -235 2 -8 22 -87 45 -175 23 -88 44 -167 46 -175 2 -8 8 -33 14 -55 6 -22
13 -51 16 -65 2 -14 9 -38 14 -55 5 -16 38 -145 74 -285 36 -140 79 -309 96
-375 17 -66 56 -217 86 -335 30 -118 80 -312 111 -430 30 -118 56 -221 58
-230 2 -8 20 -78 40 -155 21 -77 38 -147 40 -155 2 -8 19 -76 38 -150 48 -183
157 -606 169 -655 5 -22 11 -47 13 -55 2 -8 22 -85 45 -170 22 -85 43 -165 46
-178 2 -12 20 -79 38 -150 19 -70 53 -203 77 -297 23 -93 44 -172 46 -175 2
-2 499 -5 1104 -5 972 0 1098 2 1094 15 -2 8 -9 35 -15 60 -5 25 -15 61 -20
80 -10 34 -168 650 -175 680 -4 16 -54 211 -106 410 -17 63 -32 122 -34 130
-2 8 -24 96 -50 195 -25 99 -48 187 -50 195 -2 8 -22 87 -45 175 -22 88 -43
167 -45 175 -1 8 -11 44 -20 80 -9 36 -19 72 -21 80 -2 8 -33 130 -69 270 -37
140 -68 262 -70 270 -1 8 -11 44 -20 80 -9 36 -18 72 -20 80 -3 16 -68 265
-117 450 -17 63 -36 140 -43 170 -7 30 -20 80 -29 112 -8 31 -18 67 -20 80 -3
12 -30 118 -60 233 -108 417 -168 650 -171 665 -4 17 -52 203 -113 440 -50
191 -194 752 -257 995 -25 99 -50 194 -55 210 -5 17 -11 41 -14 55 -2 14 -18
77 -34 140 -31 114 -57 216 -172 665 -70 272 -88 343 -170 660 -34 132 -63
247 -65 255 -2 8 -22 87 -45 175 -23 88 -44 167 -45 175 -2 8 -13 49 -24 90
-11 41 -47 183 -81 315 -34 132 -77 301 -96 375 -94 365 -156 606 -159 620 -2
8 -22 87 -45 175 -23 88 -44 169 -46 180 -2 11 -15 56 -27 100 l-23 80 -1097
1 c-603 1 -1097 -1 -1097 -4z"/>
<path d="M10116 11311 c-9 -30 -28 -106 -31 -123 -2 -10 -15 -59 -29 -110 -14
-51 -52 -199 -85 -328 -33 -129 -72 -278 -86 -330 -28 -104 -33 -123 -40 -160
-3 -14 -12 -50 -20 -80 -9 -30 -17 -62 -19 -70 -4 -14 -67 -256 -126 -485 -16
-60 -54 -209 -85 -330 -31 -121 -60 -233 -65 -250 -5 -16 -12 -41 -14 -55 -3
-14 -13 -52 -22 -85 -9 -33 -18 -67 -20 -75 -2 -8 -8 -33 -14 -55 -6 -22 -13
-50 -15 -62 -3 -12 -25 -98 -49 -190 -24 -92 -47 -181 -52 -198 -4 -16 -8 -34
-10 -40 -2 -9 -47 -182 -185 -715 -33 -129 -62 -242 -64 -250 -2 -8 -17 -67
-34 -130 -16 -63 -51 -196 -76 -295 -152 -590 -262 -1011 -281 -1085 -9 -30
-17 -66 -20 -80 -3 -14 -8 -34 -11 -45 -4 -11 -8 -24 -9 -30 -2 -14 -87 -340
-119 -460 -15 -55 -28 -107 -30 -115 -2 -8 -29 -114 -60 -235 -32 -121 -62
-239 -68 -262 -9 -39 -27 -60 -27 -32 0 9 -88 262 -237 679 -24 69 -59 168
-78 220 -18 52 -57 160 -85 240 -29 80 -67 188 -85 240 -18 52 -42 120 -53
150 -30 81 -105 293 -247 698 -31 86 -59 164 -62 172 -3 8 -7 17 -7 20 -1 3
-9 25 -18 50 -9 25 -56 155 -103 290 -48 135 -107 301 -131 370 l-45 125
-1034 0 c-569 -1 -1037 -4 -1040 -7 -3 -3 50 -172 118 -374 69 -203 161 -479
207 -614 45 -135 84 -252 87 -260 15 -43 364 -1074 424 -1255 39 -115 74 -219
79 -230 5 -11 52 -150 106 -310 53 -159 177 -526 274 -815 98 -289 211 -626
253 -750 42 -124 160 -472 262 -775 102 -302 256 -757 341 -1009 85 -253 157
-462 160 -465 7 -7 2184 -7 2195 0 6 3 48 158 95 345 124 492 315 1257 319
1274 2 8 27 105 55 215 27 110 52 209 55 220 3 11 16 66 31 123 14 57 27 111
29 120 2 9 17 69 33 132 17 63 33 126 36 140 3 14 26 106 51 205 25 99 47 187
49 195 2 8 63 251 136 540 72 289 133 532 135 540 2 8 8 35 15 60 7 25 14 52
16 60 1 8 17 69 34 135 17 66 33 131 36 145 3 14 13 57 24 95 11 39 21 81 24
95 6 31 -4 -8 111 445 97 382 144 567 150 595 2 8 58 233 125 500 67 267 124
493 126 503 2 10 6 27 9 37 3 10 8 28 10 39 8 36 12 51 55 221 23 91 43 170
44 175 2 6 8 28 14 50 6 22 13 51 16 65 3 14 82 331 176 705 94 374 239 948
321 1275 82 327 152 604 155 615 3 11 7 31 10 45 3 14 12 50 20 80 9 30 18 66
21 79 2 14 13 56 23 95 11 39 21 82 24 96 3 14 9 40 15 58 5 17 8 32 5 32 -3
0 0 9 5 19 10 19 -10 19 -1054 19 -975 0 -1065 -2 -1069 -17z"/>
</g>
</svg>
