<?xml version="1.0" standalone="no"?>
<!DOCTYPE svg PUBLIC "-//W3C//DTD SVG 20010904//EN"
 "http://www.w3.org/TR/2001/REC-SVG-20010904/DTD/svg10.dtd">
<svg version="1.0" xmlns="http://www.w3.org/2000/svg"
 width="512.000000pt" height="512.000000pt" viewBox="0 0 512.000000 512.000000"
 preserveAspectRatio="xMidYMid meet">
<metadata>
Created by potrace 1.14, written by Peter Selinger 2001-2017
</metadata>
<g transform="translate(0.000000,512.000000) scale(0.100000,-0.100000)"
fill="#000000" stroke="none">
<path d="M10 4591 c0 -5 7 -27 15 -50 8 -23 14 -43 15 -46 0 -3 0 -6 1 -7 0
-2 2 -11 4 -21 2 -10 7 -26 11 -35 4 -9 9 -26 11 -37 2 -11 12 -46 23 -78 11
-32 21 -65 23 -75 1 -9 6 -23 10 -29 5 -7 5 -17 2 -23 -3 -5 -1 -10 5 -10 6 0
9 -3 7 -7 -3 -5 0 -19 6 -33 5 -14 11 -29 11 -35 1 -5 10 -36 20 -69 10 -32
20 -66 21 -75 2 -9 4 -16 5 -16 1 0 4 -11 6 -25 3 -14 9 -27 14 -28 6 -2 8 -7
5 -11 -2 -5 7 -44 21 -87 14 -43 28 -87 30 -96 2 -10 6 -27 9 -39 2 -12 9 -27
15 -33 5 -7 8 -15 5 -18 -3 -2 6 -38 20 -79 14 -41 28 -87 31 -104 3 -16 9
-34 14 -41 6 -6 7 -14 4 -17 -3 -3 -2 -12 2 -19 5 -7 9 -17 10 -23 1 -5 14
-48 29 -95 15 -47 28 -92 30 -100 2 -8 4 -15 5 -15 1 0 3 -9 5 -20 1 -11 12
-47 23 -80 20 -59 45 -143 46 -157 1 -3 4 -9 8 -13 4 -4 4 -13 1 -21 -3 -8 -1
-14 4 -14 5 0 9 -8 10 -17 1 -10 13 -54 28 -98 14 -43 26 -90 27 -102 2 -13 6
-23 10 -23 4 0 7 -3 7 -7 -1 -5 0 -10 1 -13 1 -3 3 -12 5 -20 1 -8 15 -55 31
-105 15 -49 29 -95 30 -101 3 -17 13 -51 41 -139 14 -44 26 -87 27 -95 2 -8 5
-23 9 -32 17 -44 20 -53 19 -60 -1 -3 12 -45 28 -93 16 -48 29 -90 28 -93 -1
-4 2 -16 6 -27 16 -41 19 -50 21 -65 2 -8 13 -46 25 -85 12 -38 23 -74 25 -80
1 -5 5 -17 8 -25 4 -8 8 -26 11 -40 2 -14 16 -61 31 -105 14 -44 27 -88 28
-98 1 -9 5 -17 10 -17 5 0 7 -7 3 -15 -3 -8 -1 -15 5 -15 6 0 8 -4 5 -9 -3 -4
5 -41 18 -82 21 -63 43 -137 52 -174 1 -5 17 -55 34 -110 17 -55 33 -104 34
-110 1 -5 5 -16 10 -23 4 -7 5 -16 2 -19 -3 -3 -1 -12 5 -20 6 -7 9 -13 7 -13
-3 0 7 -37 22 -82 l26 -83 1320 -3 c725 -1 1329 0 1342 3 13 3 20 10 17 16 -4
5 0 28 9 52 8 23 17 51 18 62 2 11 6 22 10 25 4 3 10 19 13 35 3 17 8 39 10
50 3 11 16 53 30 93 14 39 27 82 29 94 3 13 5 23 6 23 1 0 3 7 5 16 1 8 15 55
30 102 15 48 28 93 29 99 2 7 6 20 9 28 3 8 13 40 21 70 8 30 27 93 41 140 15
47 28 92 30 100 2 8 4 15 5 15 1 0 3 7 5 15 1 8 13 47 25 85 12 39 23 77 25
85 2 14 6 25 22 68 3 9 6 20 5 24 -1 3 12 45 28 92 16 47 26 86 23 86 -3 0 0
7 7 15 7 8 10 15 6 15 -3 0 -1 12 5 28 6 15 12 34 14 42 2 8 13 44 25 80 12
36 23 75 25 86 2 12 8 31 14 42 6 12 10 25 9 29 -1 4 15 62 36 128 21 66 40
127 41 137 2 9 17 61 34 115 17 54 33 108 36 121 2 12 7 27 10 32 4 6 8 22 11
36 3 14 16 60 30 102 14 42 27 86 29 97 2 11 4 21 6 23 1 1 3 7 4 12 1 6 4 13
5 18 1 4 2 10 1 15 0 4 4 7 10 7 5 0 8 4 5 9 -3 4 5 41 18 82 29 90 40 132 38
142 -1 4 3 7 9 7 5 0 8 4 5 9 -5 7 32 134 65 226 5 17 12 39 13 50 2 11 16 57
31 103 15 46 28 91 30 100 2 9 4 18 5 20 2 1 4 7 5 12 1 6 3 11 5 13 1 1 3 11
5 21 4 19 61 212 73 246 3 8 6 21 8 28 1 7 17 58 34 113 17 55 33 108 35 118
2 10 10 40 19 65 9 26 16 51 16 56 0 7 -918 10 -2550 10 -1449 0 -2550 -4
-2550 -9z"/>
</g>
</svg>
